<svg width="37" height="37" viewBox="0 0 37 37" fill="none" xmlns="http://www.w3.org/2000/svg">
<g clip-path="url(#clip0_44_261)">
<path fill-rule="evenodd" clip-rule="evenodd" d="M18.8761 1.68196C9.59522 1.68196 2.05957 9.21763 2.05957 18.5C2.05957 27.7824 9.59522 35.318 18.8761 35.318C28.1584 35.318 35.6941 27.7824 35.6941 18.5C35.6941 9.21763 28.1584 1.68196 18.8761 1.68196ZM18.8761 4.45697C26.626 4.45697 32.9191 10.75 32.9191 18.5C32.9191 26.25 26.626 32.5431 18.8761 32.5431C11.1261 32.5431 4.83455 26.25 4.83455 18.5C4.83455 10.75 11.1261 4.45697 18.8761 4.45697ZM11.4314 25.1538C11.4314 25.1538 19.2338 23.0279 24.7884 26.5706C25.4343 26.9822 26.293 26.7926 26.7046 26.1467C27.1163 25.5022 26.9267 24.6435 26.2807 24.2319C19.8026 20.1003 10.716 22.4729 10.716 22.4729C9.97601 22.6702 9.5351 23.4302 9.73243 24.1702C9.92976 24.9102 10.6914 25.3512 11.4314 25.1538ZM11.5331 20.2421C11.5331 20.2421 18.5091 17.8432 26.5258 22.0242C27.2057 22.3788 28.0443 22.1152 28.3989 21.4353C28.752 20.757 28.4884 19.9183 27.81 19.5638C18.6217 14.7738 10.6143 17.6243 10.6143 17.6243C9.8928 17.8772 9.51047 18.6696 9.76485 19.3926C10.0177 20.1141 10.8101 20.4965 11.5331 20.2421ZM10.4401 15.2748C10.4401 15.2748 18.927 12.6124 28.55 17.1002C29.2438 17.4239 30.0701 17.1233 30.3939 16.4295C30.7176 15.7358 30.417 14.9095 29.7232 14.5857C19.0349 9.59996 9.6014 12.6293 9.6014 12.6293C8.87065 12.8606 8.46674 13.6422 8.69799 14.3714C8.93078 15.1022 9.71087 15.5061 10.4401 15.2748Z" fill="white"/>
</g>
<defs>
<clipPath id="clip0_44_261">
<rect width="37" height="37" rx="15" fill="white"/>
</clipPath>
</defs>
</svg>
