<svg width="4" height="2" viewBox="0 0 4 2" fill="none" xmlns="http://www.w3.org/2000/svg">
<path d="M3.10763 1.18984L2.16586 0.637605C2.14546 0.625398 2.12118 0.615708 2.09443 0.609096C2.06767 0.602484 2.03898 0.599079 2.01 0.599079C1.98102 0.599079 1.95233 0.602484 1.92558 0.609096C1.89883 0.615708 1.87455 0.625398 1.85414 0.637605L0.923351 1.18984C0.902776 1.20195 0.886444 1.21636 0.875299 1.23223C0.864154 1.2481 0.858416 1.26512 0.858416 1.28232C0.858416 1.29951 0.864154 1.31653 0.875299 1.3324C0.886444 1.34828 0.902776 1.36268 0.923351 1.37479C0.964482 1.39905 1.02012 1.41266 1.07812 1.41266C1.13611 1.41266 1.19175 1.39905 1.23288 1.37479L2.01 0.913724L2.78712 1.37479C2.82801 1.39885 2.8832 1.41242 2.94079 1.41256C2.96968 1.41266 2.99832 1.40937 3.02507 1.40289C3.05181 1.39641 3.07614 1.38686 3.09665 1.37479C3.11796 1.36312 3.13516 1.34906 3.14726 1.33342C3.15936 1.31778 3.16611 1.30087 3.16713 1.28367C3.16815 1.26648 3.16342 1.24933 3.15321 1.23323C3.14299 1.21712 3.1275 1.20237 3.10763 1.18984Z" fill="white"/>
</svg>
