<svg width="127" height="35" viewBox="0 0 127 35" fill="none" xmlns="http://www.w3.org/2000/svg">
<g id="Logo">
<g id="MelodyMapper">
<path d="M44.8638 13.408H46.4598L49.0878 17.956H49.1838L51.8118 13.408H53.4198V22H51.8118V17.764L51.9078 16.324H51.8118L49.6278 20.176H48.6558L46.4598 16.324H46.3638L46.4598 17.764V22H44.8638V13.408Z" fill="white"/>
<path d="M60.5288 20.584C60.2568 21.064 59.8888 21.452 59.4248 21.748C58.9688 22.044 58.4088 22.192 57.7448 22.192C57.2968 22.192 56.8808 22.116 56.4968 21.964C56.1208 21.804 55.7928 21.584 55.5128 21.304C55.2328 21.024 55.0128 20.696 54.8528 20.32C54.7008 19.936 54.6248 19.516 54.6248 19.06C54.6248 18.636 54.7008 18.236 54.8528 17.86C55.0048 17.476 55.2168 17.144 55.4888 16.864C55.7608 16.576 56.0808 16.348 56.4488 16.18C56.8248 16.012 57.2368 15.928 57.6848 15.928C58.1568 15.928 58.5768 16.008 58.9448 16.168C59.3128 16.32 59.6208 16.536 59.8688 16.816C60.1168 17.088 60.3048 17.412 60.4328 17.788C60.5608 18.164 60.6248 18.572 60.6248 19.012C60.6248 19.068 60.6248 19.116 60.6248 19.156C60.6168 19.204 60.6128 19.248 60.6128 19.288C60.6048 19.328 60.6008 19.372 60.6008 19.42H56.1728C56.2048 19.66 56.2688 19.868 56.3648 20.044C56.4688 20.212 56.5928 20.356 56.7368 20.476C56.8888 20.588 57.0528 20.672 57.2288 20.728C57.4048 20.776 57.5848 20.8 57.7688 20.8C58.1288 20.8 58.4248 20.72 58.6568 20.56C58.8968 20.392 59.0848 20.184 59.2208 19.936L60.5288 20.584ZM59.1008 18.304C59.0928 18.2 59.0568 18.084 58.9928 17.956C58.9368 17.828 58.8488 17.708 58.7288 17.596C58.6168 17.484 58.4728 17.392 58.2968 17.32C58.1288 17.248 57.9248 17.212 57.6848 17.212C57.3488 17.212 57.0528 17.308 56.7968 17.5C56.5408 17.692 56.3608 17.96 56.2568 18.304H59.1008Z" fill="white"/>
<path d="M61.6288 22.592V14H63.2008V21.748L61.6288 22.592Z" fill="white"/>
<path d="M67.2722 15.928C67.7282 15.928 68.1442 16.008 68.5202 16.168C68.9042 16.32 69.2322 16.536 69.5042 16.816C69.7842 17.088 70.0002 17.416 70.1522 17.8C70.3122 18.184 70.3922 18.604 70.3922 19.06C70.3922 19.516 70.3122 19.936 70.1522 20.32C70.0002 20.704 69.7842 21.036 69.5042 21.316C69.2322 21.588 68.9042 21.804 68.5202 21.964C68.1442 22.116 67.7282 22.192 67.2722 22.192C66.8162 22.192 66.3962 22.116 66.0122 21.964C65.6362 21.804 65.3082 21.588 65.0282 21.316C64.7562 21.036 64.5402 20.704 64.3802 20.32C64.2282 19.936 64.1522 19.516 64.1522 19.06C64.1522 18.604 64.2282 18.184 64.3802 17.8C64.5402 17.416 64.7562 17.088 65.0282 16.816C65.3082 16.536 65.6362 16.32 66.0122 16.168C66.3962 16.008 66.8162 15.928 67.2722 15.928ZM67.2722 20.74C67.4722 20.74 67.6642 20.704 67.8482 20.632C68.0402 20.552 68.2082 20.44 68.3522 20.296C68.4962 20.152 68.6082 19.976 68.6882 19.768C68.7762 19.56 68.8202 19.324 68.8202 19.06C68.8202 18.796 68.7762 18.56 68.6882 18.352C68.6082 18.144 68.4962 17.968 68.3522 17.824C68.2082 17.68 68.0402 17.572 67.8482 17.5C67.6642 17.42 67.4722 17.38 67.2722 17.38C67.0642 17.38 66.8682 17.42 66.6842 17.5C66.5002 17.572 66.3362 17.68 66.1922 17.824C66.0482 17.968 65.9322 18.144 65.8442 18.352C65.7642 18.56 65.7242 18.796 65.7242 19.06C65.7242 19.324 65.7642 19.56 65.8442 19.768C65.9322 19.976 66.0482 20.152 66.1922 20.296C66.3362 20.44 66.5002 20.552 66.6842 20.632C66.8682 20.704 67.0642 20.74 67.2722 20.74Z" fill="white"/>
<path d="M75.7822 21.292H75.6862C75.5422 21.54 75.3182 21.752 75.0142 21.928C74.7102 22.104 74.3342 22.192 73.8862 22.192C73.5102 22.192 73.1502 22.116 72.8062 21.964C72.4702 21.804 72.1702 21.588 71.9062 21.316C71.6502 21.036 71.4462 20.704 71.2942 20.32C71.1422 19.936 71.0662 19.516 71.0662 19.06C71.0662 18.604 71.1422 18.184 71.2942 17.8C71.4462 17.416 71.6502 17.088 71.9062 16.816C72.1702 16.536 72.4702 16.32 72.8062 16.168C73.1502 16.008 73.5102 15.928 73.8862 15.928C74.3342 15.928 74.7102 16.016 75.0142 16.192C75.3182 16.368 75.5422 16.58 75.6862 16.828H75.7822L75.6862 15.988V13.408H77.2582V22H75.7822V21.292ZM74.2102 20.74C74.4182 20.74 74.6142 20.704 74.7982 20.632C74.9902 20.552 75.1582 20.44 75.3022 20.296C75.4462 20.152 75.5622 19.976 75.6502 19.768C75.7382 19.56 75.7822 19.324 75.7822 19.06C75.7822 18.796 75.7382 18.56 75.6502 18.352C75.5622 18.144 75.4462 17.968 75.3022 17.824C75.1582 17.68 74.9902 17.572 74.7982 17.5C74.6142 17.42 74.4182 17.38 74.2102 17.38C74.0022 17.38 73.8022 17.42 73.6102 17.5C73.4262 17.58 73.2622 17.692 73.1182 17.836C72.9742 17.98 72.8582 18.156 72.7702 18.364C72.6822 18.572 72.6382 18.804 72.6382 19.06C72.6382 19.316 72.6822 19.548 72.7702 19.756C72.8582 19.964 72.9742 20.14 73.1182 20.284C73.2622 20.428 73.4262 20.54 73.6102 20.62C73.8022 20.7 74.0022 20.74 74.2102 20.74Z" fill="white"/>
<path d="M80.4456 21.712L77.9736 16.12H79.7616L81.2496 19.684H81.3336L82.7616 16.12H84.5136L80.8296 24.592H79.1376L80.4456 21.712Z" fill="white"/>
<path d="M85.4224 13.408H87.0184L89.6464 17.956H89.7424L92.3704 13.408H93.9784V22H92.3704V17.764L92.4664 16.324H92.3704L90.1864 20.176H89.2144L87.0184 16.324H86.9224L87.0184 17.764V22H85.4224V13.408Z" fill="white"/>
<path d="M98.9676 21.376H98.8716C98.6876 21.6 98.4636 21.792 98.1996 21.952C97.9436 22.112 97.6116 22.192 97.2036 22.192C96.8996 22.192 96.6116 22.14 96.3396 22.036C96.0756 21.94 95.8436 21.804 95.6436 21.628C95.4436 21.452 95.2876 21.24 95.1756 20.992C95.0636 20.744 95.0076 20.472 95.0076 20.176C95.0076 19.872 95.0676 19.6 95.1876 19.36C95.3076 19.112 95.4756 18.9 95.6916 18.724C95.9076 18.548 96.1596 18.416 96.4476 18.328C96.7436 18.232 97.0636 18.184 97.4076 18.184C97.7916 18.184 98.1076 18.216 98.3556 18.28C98.6036 18.336 98.8076 18.396 98.9676 18.46V18.28C98.9676 17.968 98.8436 17.712 98.5956 17.512C98.3476 17.304 98.0396 17.2 97.6716 17.2C97.1276 17.2 96.6676 17.428 96.2916 17.884L95.1516 17.104C95.7756 16.32 96.6276 15.928 97.7076 15.928C98.6196 15.928 99.3156 16.144 99.7956 16.576C100.276 17 100.516 17.632 100.516 18.472V22H98.9676V21.376ZM98.9676 19.612C98.7836 19.524 98.5916 19.456 98.3916 19.408C98.1996 19.352 97.9876 19.324 97.7556 19.324C97.3796 19.324 97.0876 19.408 96.8796 19.576C96.6796 19.736 96.5796 19.936 96.5796 20.176C96.5796 20.416 96.6756 20.608 96.8676 20.752C97.0676 20.896 97.2956 20.968 97.5516 20.968C97.7596 20.968 97.9516 20.932 98.1276 20.86C98.3036 20.78 98.4516 20.68 98.5716 20.56C98.6996 20.432 98.7956 20.288 98.8596 20.128C98.9316 19.96 98.9676 19.788 98.9676 19.612Z" fill="white"/>
<path d="M101.718 16.12H103.194V16.828H103.29C103.434 16.58 103.658 16.368 103.962 16.192C104.266 16.016 104.642 15.928 105.09 15.928C105.466 15.928 105.822 16.008 106.158 16.168C106.502 16.32 106.802 16.536 107.058 16.816C107.322 17.088 107.53 17.416 107.682 17.8C107.834 18.184 107.91 18.604 107.91 19.06C107.91 19.516 107.834 19.936 107.682 20.32C107.53 20.704 107.322 21.036 107.058 21.316C106.802 21.588 106.502 21.804 106.158 21.964C105.822 22.116 105.466 22.192 105.09 22.192C104.642 22.192 104.266 22.104 103.962 21.928C103.658 21.752 103.434 21.54 103.29 21.292H103.194L103.29 22.132V24.592H101.718V16.12ZM104.766 20.74C104.974 20.74 105.17 20.7 105.354 20.62C105.546 20.54 105.714 20.428 105.858 20.284C106.002 20.14 106.118 19.964 106.206 19.756C106.294 19.548 106.338 19.316 106.338 19.06C106.338 18.804 106.294 18.572 106.206 18.364C106.118 18.156 106.002 17.98 105.858 17.836C105.714 17.692 105.546 17.58 105.354 17.5C105.17 17.42 104.974 17.38 104.766 17.38C104.558 17.38 104.358 17.42 104.166 17.5C103.982 17.572 103.818 17.68 103.674 17.824C103.53 17.968 103.414 18.144 103.326 18.352C103.238 18.56 103.194 18.796 103.194 19.06C103.194 19.324 103.238 19.56 103.326 19.768C103.414 19.976 103.53 20.152 103.674 20.296C103.818 20.44 103.982 20.552 104.166 20.632C104.358 20.704 104.558 20.74 104.766 20.74Z" fill="white"/>
<path d="M108.749 16.12H110.225V16.828H110.321C110.465 16.58 110.689 16.368 110.993 16.192C111.297 16.016 111.673 15.928 112.121 15.928C112.497 15.928 112.853 16.008 113.189 16.168C113.533 16.32 113.833 16.536 114.089 16.816C114.353 17.088 114.561 17.416 114.713 17.8C114.865 18.184 114.941 18.604 114.941 19.06C114.941 19.516 114.865 19.936 114.713 20.32C114.561 20.704 114.353 21.036 114.089 21.316C113.833 21.588 113.533 21.804 113.189 21.964C112.853 22.116 112.497 22.192 112.121 22.192C111.673 22.192 111.297 22.104 110.993 21.928C110.689 21.752 110.465 21.54 110.321 21.292H110.225L110.321 22.132V24.592H108.749V16.12ZM111.797 20.74C112.005 20.74 112.201 20.7 112.385 20.62C112.577 20.54 112.745 20.428 112.889 20.284C113.033 20.14 113.149 19.964 113.237 19.756C113.325 19.548 113.369 19.316 113.369 19.06C113.369 18.804 113.325 18.572 113.237 18.364C113.149 18.156 113.033 17.98 112.889 17.836C112.745 17.692 112.577 17.58 112.385 17.5C112.201 17.42 112.005 17.38 111.797 17.38C111.589 17.38 111.389 17.42 111.197 17.5C111.013 17.572 110.849 17.68 110.705 17.824C110.561 17.968 110.445 18.144 110.357 18.352C110.269 18.56 110.225 18.796 110.225 19.06C110.225 19.324 110.269 19.56 110.357 19.768C110.445 19.976 110.561 20.152 110.705 20.296C110.849 20.44 111.013 20.552 111.197 20.632C111.389 20.704 111.589 20.74 111.797 20.74Z" fill="white"/>
<path d="M121.513 20.584C121.241 21.064 120.873 21.452 120.409 21.748C119.953 22.044 119.393 22.192 118.729 22.192C118.281 22.192 117.865 22.116 117.481 21.964C117.105 21.804 116.777 21.584 116.497 21.304C116.217 21.024 115.997 20.696 115.837 20.32C115.685 19.936 115.609 19.516 115.609 19.06C115.609 18.636 115.685 18.236 115.837 17.86C115.989 17.476 116.201 17.144 116.473 16.864C116.745 16.576 117.065 16.348 117.433 16.18C117.809 16.012 118.221 15.928 118.669 15.928C119.141 15.928 119.561 16.008 119.929 16.168C120.297 16.32 120.605 16.536 120.853 16.816C121.101 17.088 121.289 17.412 121.417 17.788C121.545 18.164 121.609 18.572 121.609 19.012C121.609 19.068 121.609 19.116 121.609 19.156C121.601 19.204 121.597 19.248 121.597 19.288C121.589 19.328 121.585 19.372 121.585 19.42H117.157C117.189 19.66 117.253 19.868 117.349 20.044C117.453 20.212 117.577 20.356 117.721 20.476C117.873 20.588 118.037 20.672 118.213 20.728C118.389 20.776 118.569 20.8 118.753 20.8C119.113 20.8 119.409 20.72 119.641 20.56C119.881 20.392 120.069 20.184 120.205 19.936L121.513 20.584ZM120.085 18.304C120.077 18.2 120.041 18.084 119.977 17.956C119.921 17.828 119.833 17.708 119.713 17.596C119.601 17.484 119.457 17.392 119.281 17.32C119.113 17.248 118.909 17.212 118.669 17.212C118.333 17.212 118.037 17.308 117.781 17.5C117.525 17.692 117.345 17.96 117.241 18.304H120.085Z" fill="white"/>
<path d="M122.613 16.12H124.089V16.936H124.185C124.257 16.792 124.353 16.66 124.473 16.54C124.593 16.42 124.725 16.316 124.869 16.228C125.021 16.14 125.181 16.072 125.349 16.024C125.525 15.976 125.697 15.952 125.865 15.952C126.073 15.952 126.249 15.972 126.393 16.012C126.545 16.052 126.673 16.104 126.777 16.168L126.357 17.596C126.261 17.548 126.153 17.512 126.033 17.488C125.921 17.456 125.781 17.44 125.613 17.44C125.397 17.44 125.201 17.484 125.025 17.572C124.849 17.652 124.697 17.768 124.569 17.92C124.449 18.072 124.353 18.252 124.281 18.46C124.217 18.66 124.185 18.88 124.185 19.12V22H122.613V16.12Z" fill="white"/>
</g>
<path id="Rectangle 1" d="M0 8.36068C0 6.614 1.41597 5.19803 3.16265 5.19803C4.90933 5.19803 6.3253 6.614 6.3253 8.36068V24.9067C6.3253 26.6533 4.90933 28.0693 3.16265 28.0693C1.41597 28.0693 0 26.6533 0 24.9067V8.36068Z" fill="url(#paint0_linear_44_250)" fill-opacity="0.53"/>
<path id="Rectangle 3" d="M18.9761 8.36068C18.9761 6.614 20.392 5.19803 22.1387 5.19803C23.8854 5.19803 25.3014 6.614 25.3014 8.36068V24.9067C25.3014 26.6533 23.8854 28.0693 22.1387 28.0693C20.392 28.0693 18.9761 26.6533 18.9761 24.9067V8.36068Z" fill="url(#paint1_linear_44_250)"/>
<path id="Rectangle 4" d="M28.6748 13.5587C28.6748 11.812 30.0908 10.396 31.8375 10.396C33.5841 10.396 35.0001 11.812 35.0001 13.5587V22.1344C35.0001 23.8811 33.5841 25.297 31.8375 25.297C30.0908 25.297 28.6748 23.8811 28.6748 22.1344V13.5587Z" fill="url(#paint2_linear_44_250)"/>
<path id="Rectangle 2" d="M9.69873 2.95181C9.69873 1.32157 11.0203 0 12.6505 0C14.2808 0 15.6023 1.32157 15.6023 2.95181V32.0482C15.6023 33.6784 14.2808 35 12.6505 35C11.0203 35 9.69873 33.6784 9.69873 32.0482V2.95181Z" fill="url(#paint3_linear_44_250)"/>
</g>
<defs>
<linearGradient id="paint0_linear_44_250" x1="2.95181" y1="19.4059" x2="3.09421" y2="28.0704" gradientUnits="userSpaceOnUse">
<stop stop-color="#1FDF64"/>
<stop offset="1" stop-color="#18C471" stop-opacity="0.53"/>
</linearGradient>
<linearGradient id="paint1_linear_44_250" x1="22.1387" y1="5.19803" x2="22.1387" y2="28.0693" gradientUnits="userSpaceOnUse">
<stop stop-color="#1FDF64"/>
<stop offset="1" stop-color="#18C471" stop-opacity="0.53"/>
</linearGradient>
<linearGradient id="paint2_linear_44_250" x1="31.8375" y1="10.396" x2="31.8375" y2="25.297" gradientUnits="userSpaceOnUse">
<stop stop-color="#1FDF64"/>
<stop offset="1" stop-color="#18C471" stop-opacity="0.53"/>
</linearGradient>
<linearGradient id="paint3_linear_44_250" x1="12.6505" y1="0" x2="12.6505" y2="35" gradientUnits="userSpaceOnUse">
<stop stop-color="#1FDF64"/>
<stop offset="1" stop-color="#18C471" stop-opacity="0.53"/>
</linearGradient>
</defs>
</svg>
