<svg width="6" height="4" viewBox="0 0 6 4" fill="none" xmlns="http://www.w3.org/2000/svg">
<path d="M5.49626 0.588875C5.40262 0.495673 5.27594 0.443359 5.1439 0.443359C5.01187 0.443359 4.88519 0.495673 4.79155 0.588875L2.9973 2.36033L1.22803 0.588875C1.13439 0.495673 1.00772 0.443359 0.875679 0.443359C0.743641 0.443359 0.616968 0.495673 0.523326 0.588875C0.476481 0.635395 0.439299 0.690741 0.413926 0.751721C0.388552 0.812701 0.375488 0.878108 0.375488 0.944168C0.375488 1.01023 0.388552 1.07564 0.413926 1.13661C0.439299 1.19759 0.476481 1.25294 0.523326 1.29946L2.64244 3.42121C2.68891 3.46811 2.74418 3.50534 2.80509 3.53074C2.86599 3.55615 2.93132 3.56923 2.9973 3.56923C3.06328 3.56923 3.1286 3.55615 3.18951 3.53074C3.25041 3.50534 3.30569 3.46811 3.35215 3.42121L5.49626 1.29946C5.5431 1.25294 5.58028 1.19759 5.60566 1.13661C5.63103 1.07564 5.6441 1.01023 5.6441 0.944168C5.6441 0.878108 5.63103 0.812701 5.60566 0.751721C5.58028 0.690741 5.5431 0.635395 5.49626 0.588875Z" fill="white"/>
</svg>
